<svg width="93" height="89" viewBox="0 0 93 89" fill="none" xmlns="http://www.w3.org/2000/svg">
<g filter="url(#filter0_f_31_3)">
<rect x="2" y="2" width="89" height="85" rx="7" fill="black"/>
<rect x="2" y="2" width="89" height="85" rx="7" stroke="#333333" stroke-opacity="0.69"/>
</g>
<path d="M52.0699 29.9556C52.5933 30.3381 53.0803 30.7773 53.4595 31.2979V31.5044L53.7802 31.6077C54.1009 32.0551 54.1009 32.0551 54.1009 32.3305L53.9167 32.27C53.6578 32.1859 53.3985 32.1028 53.1388 32.0207L52.758 31.898C51.9295 31.709 51.1395 31.7964 50.3595 32.124C49.4114 32.7288 48.9993 33.4838 48.6491 34.4988C48.5799 35.1512 48.6885 35.663 48.9698 36.2542L49.1168 36.5833C49.315 36.9147 49.5318 37.1331 49.825 37.39L50.1257 37.6675C50.8919 38.2044 51.7963 38.1816 52.7112 38.1127C53.5192 37.9667 54.2527 37.4545 54.7243 36.8144C54.8809 36.5623 55.0266 36.307 55.1699 36.0476L55.3837 35.7379C55.6257 35.9717 55.5164 36.5156 55.5173 36.8286C55.5111 39.0253 54.9167 40.9439 53.4595 42.656L53.257 42.9149C53.0108 43.1965 52.7489 43.4136 52.4506 43.6433L52.1505 43.876L51.8561 44.1015L51.5763 44.3214C50.9136 44.8241 50.1892 45.1061 49.3974 45.3664L49.1554 45.4472C46.8558 46.1754 44.1914 45.8411 42.0513 44.8436C40.6065 44.1167 39.4835 43.0377 38.6008 41.7267L38.4547 41.525C37.1609 39.6778 36.9917 37.2488 37.366 35.108C37.6276 33.8073 38.1854 32.6502 39.0284 31.6077C39.1179 31.4788 39.2069 31.3498 39.2956 31.2205C39.5743 30.844 39.9161 30.5279 40.3112 30.2654H40.525L40.6319 29.9556C41.2556 29.4843 41.9209 29.0868 42.6629 28.8198L42.9911 28.6713C46.0238 27.4129 49.4757 28.1705 52.0699 29.9556Z" fill="#CFA25A"/>
<path d="M34.4393 10.0136L34.6892 10.0129C34.9633 10.0123 35.2373 10.0124 35.5114 10.0125L36.1037 10.0114C36.6384 10.0106 37.1731 10.0102 37.7078 10.0102C38.0423 10.0101 38.3766 10.0099 38.7111 10.0096C39.8789 10.0087 41.0466 10.0082 42.2144 10.0083C43.3013 10.0083 44.3881 10.0073 45.475 10.0057C46.4098 10.0043 47.3444 10.0038 48.279 10.0038C48.8365 10.0038 49.3941 10.0036 49.9517 10.0025C50.4762 10.0014 51.0008 10.0014 51.5252 10.0022C51.7172 10.0024 51.9091 10.0022 52.1011 10.0014C54.7043 9.99348 54.7043 9.99348 55.5945 10.7265C56.0009 11.1583 56.2194 11.663 56.4526 12.1958L56.6193 12.5608C56.9347 13.2593 57.2355 13.9638 57.5216 14.6739L57.6189 14.9135C57.8423 15.4735 57.8423 15.4735 57.8423 15.7065H64.4699V14.7772C64.6971 14.461 64.6971 14.461 65.0044 14.2609C65.3586 14.2287 65.3586 14.2287 65.6458 14.2609L65.6725 13.9253C65.762 13.4932 65.8248 13.3869 66.1803 13.1251C66.4967 13.0734 66.4967 13.0734 66.8698 13.0733L67.2934 13.0704C67.4457 13.0714 67.5981 13.0726 67.7504 13.0739C67.9069 13.0739 68.0634 13.0737 68.22 13.0734C68.5477 13.0734 68.8756 13.0746 69.2034 13.0769C69.6232 13.0799 70.043 13.0796 70.4629 13.0782C70.7861 13.0775 71.1092 13.0783 71.4325 13.0797C71.5871 13.0801 71.7419 13.0801 71.8967 13.0797C72.1132 13.0795 72.3297 13.0813 72.5461 13.0834L72.9192 13.085C73.2668 13.129 73.4149 13.1998 73.6631 13.4349C73.749 13.7131 73.7501 13.9683 73.77 14.2609L74.1241 14.2996C74.5183 14.3642 74.5183 14.3642 74.839 14.5707C75.052 14.9605 75.0609 15.2718 75.0527 15.7065C75.113 15.7054 75.1733 15.7044 75.2354 15.7032C75.513 15.6988 75.7907 15.6962 76.0683 15.6936C76.1631 15.6918 76.2579 15.69 76.3556 15.6884C77.3251 15.6815 78.2231 15.817 78.9679 16.468L79.2217 16.739L79.4556 16.9713C79.9082 17.6347 79.8941 18.4481 79.8896 19.2192L79.8904 19.5228C79.8909 19.8567 79.8901 20.1905 79.8891 20.5243C79.8903 21.4189 79.8901 22.3135 79.8884 23.2081C79.8875 23.8299 79.8876 24.4517 79.8876 25.0734C79.8876 26.3131 79.8866 27.5529 79.8851 28.7926C79.8832 30.2691 79.8825 31.7456 79.883 33.2222V33.4396C79.8831 43.4733 79.8831 43.4733 79.8246 47.9751C79.8219 48.201 79.8193 48.427 79.8169 48.6529C79.8123 49.056 79.8066 49.4592 79.7998 49.8623L79.7962 50.2017C79.7732 51.3717 79.7214 52.6218 78.8042 53.4824C77.7959 54.2269 76.4392 54.0235 75.2398 53.9688L74.8402 53.9524C74.519 53.9392 74.198 53.9253 73.8769 53.9107C74.2455 53.6733 74.3885 53.6784 74.8227 53.676L75.1995 53.6695C75.4595 53.6668 75.7196 53.665 75.9795 53.6638C76.9267 53.6458 77.7086 53.5257 78.4668 52.9492C78.9271 52.3699 79.0563 51.8555 79.043 51.1353L79.0424 50.8958C79.0413 50.6423 79.0381 50.3889 79.0347 50.1355C79.034 49.978 79.0334 49.8205 79.033 49.6629C79.0282 48.8257 79.0116 47.9886 78.9831 47.1518C78.8917 44.3922 78.8849 41.6335 78.883 38.8726C78.8821 37.8878 78.8804 36.903 78.8776 35.9183L78.876 35.2626C78.8741 34.4479 78.8724 33.6331 78.8708 32.8185L78.8704 32.5939C78.8682 31.385 78.8667 30.1761 78.8661 28.9672C78.8652 27.7174 78.8627 26.4676 78.8588 25.2179C78.8567 24.5195 78.8553 23.821 78.8559 23.1226C78.8564 22.4687 78.8549 21.8147 78.852 21.1608C78.8512 20.9214 78.8511 20.6821 78.852 20.4428C78.8529 20.1154 78.8512 19.7882 78.8489 19.461L78.8517 19.1763C78.8431 18.5187 78.7138 17.9318 78.3666 17.3585C77.7401 16.826 77.1099 16.7325 76.2933 16.7064L75.904 16.6933L75.5004 16.6809L75.0906 16.6675C74.7573 16.6566 74.424 16.646 74.0907 16.6358L73.9838 15.3967L72.8079 15.2934V14.0544H66.7148L66.6079 14.9837L66.501 15.1902C66.1821 15.2519 65.8635 15.2669 65.5389 15.2934L65.432 16.6358H57.2009C56.3796 15.0491 56.3796 15.0491 56.1277 14.415C55.968 14.0146 55.7936 13.6202 55.6213 13.2247C55.4986 12.9373 55.3841 12.6478 55.2701 12.3572C55.0044 11.7036 55.0044 11.7036 54.4442 11.2826C53.5281 10.9817 52.5997 11.0164 51.6449 11.0199C51.4515 11.0195 51.2581 11.0189 51.0647 11.0183C50.542 11.0168 50.0191 11.0174 49.4964 11.0184C48.948 11.0192 48.3996 11.0184 47.8513 11.018C46.9306 11.0175 46.01 11.0181 45.0894 11.0196C44.0265 11.0213 42.9637 11.0207 41.9008 11.019C40.9864 11.0177 40.0721 11.0175 39.1578 11.0183C38.6126 11.0187 38.0673 11.0188 37.5219 11.0178C37.0092 11.0168 36.4965 11.0176 35.9839 11.0193C35.7963 11.0197 35.6086 11.0196 35.4209 11.0189C33.9451 10.9547 33.9451 10.9547 32.6523 11.5219C32.4746 11.7156 32.3704 11.9113 32.2538 12.1442L32.1148 12.4217C31.6772 13.3192 31.2719 14.2225 30.9046 15.1491L30.7973 15.4161L30.7038 15.6528C30.5466 15.9926 30.3471 16.3127 30.1559 16.6358H22.78L22.6731 15.913L17.2214 15.8097L17.1145 16.6358L16.806 16.6386C16.4239 16.6428 16.0421 16.6496 15.6601 16.6572C15.4956 16.6601 15.3311 16.6623 15.1666 16.6637C14.2397 16.6724 13.4498 16.6983 12.6248 17.152L12.3041 17.2553C12.1828 17.4923 12.1828 17.4923 12.0903 17.7716L11.9798 17.9973C11.8498 18.3631 11.8397 18.7078 11.8344 19.0902L11.8284 19.3307C11.8222 19.5936 11.8174 19.8565 11.8126 20.1194C11.7966 20.7967 11.7821 21.474 11.7689 22.1513C11.7591 22.6386 11.7484 23.1257 11.7376 23.6129L11.7312 23.9012C11.7209 24.3765 11.7105 24.8518 11.7 25.3271C11.6758 26.434 11.6498 27.5409 11.6162 28.6477C11.6098 28.8567 11.604 29.0658 11.598 29.2748L11.5861 29.6508C11.5829 29.7578 11.5797 29.8648 11.5761 29.975C11.5568 30.2524 11.5124 30.5109 11.4489 30.7817H11.2351C11.1459 28.8369 11.0995 26.8926 11.0714 24.9462C11.0671 24.6574 11.0623 24.3686 11.0576 24.0798C11.0437 23.2209 11.0324 22.3619 11.0237 21.5029L11.016 20.8212C11.0117 20.4402 11.0086 20.0592 11.0065 19.6782C11.0055 19.5345 11.0042 19.3909 11.0025 19.2474C10.9909 18.2317 10.9918 17.4639 11.6627 16.6358C12.6237 15.7287 13.7362 15.6896 15.0166 15.7001L15.3478 15.7014C15.616 15.7026 15.8842 15.7043 16.1524 15.7065L16.2326 15.4677C16.3848 15.1517 16.4866 15.0569 16.7938 14.8804C17.081 14.8397 17.081 14.8397 17.4127 14.8371L17.7901 14.8321H18.1964L18.6149 14.8296C18.907 14.8283 19.1992 14.828 19.4913 14.8287C19.8649 14.8293 20.2384 14.8261 20.612 14.822C20.9693 14.8187 21.3265 14.8191 21.6839 14.8191L22.0896 14.8139C23.1216 14.8219 23.1216 14.8219 23.4498 15.1231C23.6352 15.3967 23.6352 15.3967 23.7421 15.7065H29.5145L29.6214 15.1902C29.7104 14.999 29.7104 14.999 29.8152 14.8159C29.9895 14.4931 30.1257 14.1723 30.2495 13.8286C30.4936 13.1599 30.8021 12.5254 31.118 11.886L31.2354 11.6355C31.5637 10.9537 32.0339 10.4954 32.7215 10.1307C33.2958 10.0405 33.8576 10.0124 34.4393 10.0136Z" fill="#C6964D"/>
<path d="M52.1767 21.2822C52.3207 21.3275 52.4654 21.3709 52.6111 21.4113C53.9448 21.8312 55.2475 22.5676 56.3474 23.3998C56.5694 23.565 56.5694 23.565 56.8577 23.7377C57.2587 24.0055 57.6076 24.3036 57.9626 24.6251L58.1725 24.8148C58.6498 25.2539 59.1037 25.7162 59.5326 26.1997L59.6936 26.3809C59.9395 26.6649 60.1403 26.9353 60.3009 27.271L60.5014 27.4582C60.7859 27.7411 60.9604 28.0643 61.1561 28.4068L61.3624 28.7618C61.8685 29.65 62.3033 30.5474 62.6527 31.5044L62.7265 31.7066C64.1184 35.6218 63.8497 40.2812 61.9876 44.0076C61.2673 45.3845 60.447 46.6608 59.3978 47.8244C59.2271 48.0141 59.0611 48.2078 58.9 48.4052C58.7152 48.6237 58.5326 48.7991 58.31 48.9803C57.9732 49.2574 57.6461 49.542 57.3212 49.8322C56.1638 50.8402 54.8347 51.5061 53.4469 52.1625C53.2822 52.2412 53.1187 52.3228 52.9559 52.4051C49.3668 54.1385 44.529 54.044 40.8008 52.8468C39.8378 52.5255 38.9033 52.2109 38.0663 51.6391L37.8215 51.5492C37.4812 51.4123 37.2016 51.2332 36.8971 51.0325L36.5735 50.8203L36.2491 50.6066L35.8879 50.3863L35.6077 50.1936V49.987L35.0732 49.7805V49.574L34.8811 49.49C34.6445 49.367 34.4886 49.2425 34.299 49.0601L34.1085 48.8774L33.9107 48.6835L33.7072 48.4852C33.2632 48.0474 32.8653 47.6026 32.5077 47.0959C32.3991 46.9557 32.29 46.8158 32.1802 46.6764C32.0749 46.5414 31.9702 46.4059 31.8663 46.2699L31.7421 46.1094C30.2083 44.0922 29.4925 41.5784 29.087 39.1453L29.0506 38.9312C28.8015 37.2724 28.9146 35.5191 29.2573 33.8819C29.2974 33.6886 29.3325 33.4944 29.3671 33.3001C29.9968 30.0216 32.1144 26.4237 34.8594 24.3799H35.0732L35.1801 24.0701C35.4028 23.896 35.6324 23.7302 35.8683 23.5731L36.0755 23.4332C36.6185 23.0698 37.1687 22.7295 37.7456 22.418L37.9318 22.3137C42.0425 20.0184 47.76 19.3883 52.1767 21.2822ZM36.0353 24.6896L35.7643 24.8897C35.2621 25.2642 34.822 25.6418 34.4167 26.1134C34.0882 26.4907 33.7358 26.8471 33.3879 27.2077C33.1641 27.4606 32.998 27.7054 32.8284 27.9938C32.7148 28.1595 32.6012 28.3251 32.4876 28.4907C32.0033 29.2246 31.6093 29.9958 31.2249 30.7817L31.0709 31.0938C30.3251 32.7059 30.0393 34.3998 29.9421 36.1509L29.9292 36.3656C29.8279 38.2961 30.1054 40.3248 30.7973 42.1397L30.8826 42.3637C31.393 43.6771 32.0729 44.8332 32.8884 45.9924L33.0333 46.1983C33.5277 46.8892 33.5277 46.8892 34.1111 47.5089H34.3249L34.4104 47.6938C34.9602 48.6726 36.2741 49.4989 37.2111 50.0903H37.4249V50.2968L37.597 50.3763C38.2339 50.6761 38.2339 50.6761 38.5005 50.8712C38.7926 51.0804 39.1226 51.1948 39.456 51.3294L39.6526 51.4122C40.6859 51.8458 41.725 52.1562 42.8232 52.4006L43.1747 52.479C47.0082 53.2962 51.2121 52.5059 54.5689 50.5626C54.8094 50.4108 55.0431 50.2518 55.2768 50.0903C55.3958 50.0105 55.515 49.9308 55.6342 49.8512C56.7463 49.1125 56.7463 49.1125 57.7354 48.2317V48.0252L58.0561 47.9219C59.1985 46.8771 60.1034 45.4382 60.8354 44.1015C60.8996 43.9877 60.8996 43.9877 60.9648 43.8716C61.6191 42.6681 62.0684 41.4198 62.2956 40.0787C62.335 39.8507 62.3785 39.6238 62.4222 39.3966C62.768 37.5372 62.6757 35.8387 62.332 33.9826L62.2886 33.7469C61.8376 31.4077 60.6751 29.1114 59.1251 27.271L58.8696 26.9608C58.4761 26.4883 58.0767 26.044 57.6285 25.6189L57.3613 25.3479C57.1057 25.1133 56.8614 24.9648 56.5595 24.7929L56.1319 24.3799C55.6259 23.9821 55.0988 23.6529 54.5285 23.3473L54.3389 23.2453C48.4438 20.1 41.3156 20.5881 36.0353 24.6896Z" fill="#C8994F"/>
<path d="M54.1009 25.8254L54.2963 25.9545C54.9954 26.4377 55.6148 27.012 56.2388 27.5808C56.3122 27.6472 56.3855 27.7135 56.461 27.7821C57.0888 28.368 57.6157 29.0215 58.0561 29.7491L58.2557 30.0686C60.1512 33.1747 60.6694 36.798 59.7792 40.2886C59.5002 41.3265 59.128 42.2585 58.5873 43.1942C58.4741 43.3958 58.371 43.601 58.2678 43.8076C58.1071 44.1229 57.9082 44.4187 57.6752 44.6887C57.4743 44.9291 57.2971 45.1516 57.1341 45.418C56.9455 45.716 56.7142 45.9254 56.4526 46.1666C56.3276 46.2868 56.2029 46.4072 56.0785 46.528L55.8856 46.7136C55.73 46.8653 55.576 47.0185 55.4238 47.1734C55.1746 47.4014 54.9311 47.55 54.6354 47.7154L54.4884 47.8639C54.2774 48.0599 54.0414 48.1838 53.7857 48.3189C53.6358 48.4006 53.4884 48.4867 53.3439 48.577C50.6094 50.2687 46.9318 50.856 43.7652 50.2194C43.4323 50.1465 43.1005 50.0691 42.7698 49.987L42.3652 49.8967C41.0837 49.5841 39.9515 48.9692 38.8146 48.335L38.5778 48.2042L38.0663 47.9219V47.7154L37.8902 47.6404C37.5758 47.476 37.3151 47.2747 37.0374 47.0572L36.7259 46.816C36.4816 46.5965 36.3892 46.4486 36.2491 46.1666L35.9284 46.0634C35.7572 45.8788 35.5945 45.6872 35.4406 45.489L35.3006 45.3106C34.9371 44.8397 34.6021 44.3534 34.2781 43.8563L34.1445 43.6519C33.6551 42.8852 33.3476 42.0589 33.0422 41.2104L32.9274 40.9006C31.8614 37.8385 32.2101 34.1181 33.6424 31.2236C34.1221 30.2921 34.6553 29.2793 35.3939 28.5101H35.6077L35.6812 28.2841C35.8507 27.9333 36.0632 27.7406 36.356 27.4775L36.5899 27.2387C37.0217 26.8401 37.4887 26.4897 37.9594 26.1352L38.1887 25.9589C38.5807 25.6639 38.9667 25.4216 39.4172 25.2188C39.6116 25.1294 39.8029 25.0335 39.9926 24.9349C41.3823 24.223 42.8109 23.8366 44.3733 23.6571L44.605 23.6224C47.9011 23.1667 51.3759 23.9902 54.1009 25.8254ZM44.1595 24.6896L43.7711 24.7433C41.0512 25.1831 38.2946 26.7506 36.5698 28.8198L36.3335 29.0909C36.0874 29.3758 35.8454 29.6641 35.6077 29.9556L35.434 30.1657C34.8277 30.9663 34.4858 31.9304 34.1111 32.8468L34.0205 33.0628C33.8284 33.5336 33.7056 33.9941 33.6167 34.4924L33.5763 34.7122C33.3052 36.2138 33.2983 37.6394 33.5766 39.1453L33.6435 39.5067C34.1213 41.8562 35.3322 43.8923 36.9974 45.6503L37.2713 45.9408C37.5333 46.168 37.7433 46.2518 38.0663 46.3731L38.1732 46.6829C38.3997 46.854 38.6338 47.0155 38.8748 47.1669L39.0926 47.3046C42.1659 49.208 45.7177 49.8363 49.3029 49.1156C51.2431 48.6843 52.9931 47.6787 54.5285 46.4764L54.7557 46.2998C54.934 46.1573 55.1061 46.0077 55.2768 45.8569V45.6503L55.4605 45.5814C55.7805 45.4009 55.9561 45.1756 56.1854 44.8953L56.4292 44.5996L56.6664 44.308L56.8944 44.0391C58.8254 41.647 59.3948 38.2942 59.0427 35.3573C58.7522 33.224 57.9415 31.4026 56.6664 29.6459L56.4459 29.3103C56.2236 29.0055 55.9836 28.7673 55.7044 28.5101C55.5793 28.3899 55.4547 28.2695 55.3302 28.1487L55.1373 27.9631C54.9817 27.8114 54.8277 27.6581 54.6755 27.5033C54.4239 27.2731 54.1833 27.1326 53.8871 26.9612C53.7057 26.8313 53.5253 26.7001 53.3459 26.5675C51.4372 25.2248 49.0634 24.5995 46.725 24.4831L46.4957 24.4702C45.7092 24.4477 44.9345 24.5733 44.1595 24.6896Z" fill="#C8994F"/>
<path d="M12.411 73.2194H82.1079V73.8389H12.411V73.2194Z" fill="#FDEACB"/>
<path d="M58.3768 55.4595H59.8733C60.1398 55.9717 60.406 56.4841 60.6718 56.9966C60.7623 57.1706 60.8526 57.3446 60.9432 57.5184C61.0739 57.7699 61.2044 58.0213 61.3348 58.2728L61.4556 58.5047C61.7285 59.0319 61.9816 59.5657 62.2251 60.106C62.9354 58.5692 63.6231 57.0277 64.2561 55.4595H65.8596L65.8643 56.0106C65.8698 56.6123 65.8768 57.214 65.8848 57.8157C65.8895 58.1804 65.8938 58.5451 65.8966 58.9098C65.8999 59.3294 65.9057 59.749 65.9117 60.1685L65.9139 60.5643L65.9203 60.9337L65.9238 61.2582C65.9734 61.5992 66.0765 61.792 66.2872 62.0679L66.6079 62.2744V62.5841C66.0126 62.6201 65.5339 62.5529 65.0044 62.2744C64.4088 61.7142 64.3313 61.0595 64.3188 60.2875L64.313 60.0741C64.3064 59.8137 64.3013 59.5533 64.2962 59.2929L64.2561 57.5246L62.2251 62.0679H61.6906C60.9801 60.8056 60.3269 59.5216 59.6938 58.2216C59.5088 57.8495 59.3162 57.4809 59.1251 57.1116L59.0182 62.0679H58.3768V55.4595Z" fill="#C9974C"/>
<path d="M35.0732 55.4595H36.5698L36.5779 55.9965C36.5869 56.5814 36.5963 57.1661 36.606 57.751C36.612 58.1057 36.6176 58.4603 36.6229 58.8149C36.629 59.2225 36.6359 59.6299 36.6429 60.0374L36.6482 60.4243L36.6546 60.7814L36.6598 61.0968C36.6601 61.3464 36.6601 61.3464 36.7835 61.5516C37.0309 61.627 37.2804 61.6962 37.5318 61.7581L37.621 61.4873C37.7406 61.1526 37.8779 60.8362 38.0291 60.5138L38.1991 60.1501L38.3804 59.7639C38.5057 59.4961 38.6307 59.228 38.7557 58.9601L38.8515 58.755C39.2258 57.9521 39.5907 57.1453 39.9541 56.3378L40.0923 56.0322L40.2131 55.7639C40.3112 55.5628 40.3112 55.5628 40.4181 55.4595C40.6318 55.4554 40.8456 55.4551 41.0594 55.4595C41.3009 55.9942 41.5419 56.5291 41.7824 57.0641C42.1163 57.8057 42.4475 58.5479 42.7643 59.2965C42.8118 59.4086 42.8594 59.5206 42.9082 59.6362C42.9965 59.8457 43.0841 60.0555 43.1708 60.2657C43.5183 61.1252 43.5183 61.1252 44.2396 61.687L44.4801 61.7581V62.0678C42.9541 62.1269 42.9541 62.1269 42.4491 61.7581C42.0635 61.3929 41.741 61.0304 41.5939 60.519V60.2093L38.9215 60.3125L38.0663 62.0678C37.6454 62.0761 37.2246 62.0823 36.8035 62.0873L36.4409 62.0951L36.0933 62.0981L35.7726 62.1031C35.5008 62.0678 35.5008 62.0678 35.3102 61.9367C35.0464 61.5739 35.0601 61.1896 35.0611 60.7578V60.4008L35.0628 60.0172L35.0634 59.6231C35.0638 59.2782 35.0647 58.9332 35.0659 58.5883C35.067 58.236 35.0675 57.8837 35.0681 57.5314C35.0692 56.8408 35.0711 56.1501 35.0733 55.4594L35.0732 55.4595ZM40.2043 57.4214C40.0856 57.6448 39.9677 57.8686 39.8501 58.0925L39.7502 58.2805C39.506 58.7472 39.3278 59.1971 39.1353 59.693H41.2732C41.0904 59.1633 41.0904 59.1633 40.8748 58.6516L40.7747 58.4317L40.6719 58.2087L40.5667 57.9784C40.4818 57.7926 40.3965 57.6069 40.3112 57.4214H40.2043ZM31.5456 63.1004C32.1349 63.0927 32.7243 63.0871 33.3137 63.0834C33.5138 63.0818 33.7139 63.0797 33.914 63.0771C35.4387 63.057 36.7621 63.0718 37.9536 64.1071C38.6057 64.7607 38.822 65.4563 38.8547 66.3529C38.8255 67.2571 38.5654 68.0719 37.9064 68.7335C37.0998 69.4568 36.1961 69.7265 35.115 69.7188L34.8795 69.7183C34.6323 69.7176 34.3851 69.7166 34.1378 69.7152C33.5588 69.714 32.9798 69.7118 32.4008 69.7087L32.3981 69.4959C32.389 68.7656 32.3783 68.0354 32.3669 67.305C32.3627 67.0324 32.359 66.7599 32.3557 66.4873C32.3508 66.0955 32.3446 65.704 32.3381 65.3122L32.3344 64.9424L32.328 64.5979L32.3237 64.2949C32.2926 64.0179 32.2406 63.8474 32.0801 63.6167C31.8069 63.5328 31.8069 63.5328 31.5456 63.5134V63.1004ZM33.8973 63.7199C33.8881 63.8911 33.884 64.0626 33.8851 64.234V64.566L33.8868 64.9271L33.8874 65.2947C33.8879 65.684 33.8893 66.0733 33.8906 66.4627C33.8912 66.7258 33.8917 66.989 33.8921 67.2522C33.8933 67.899 33.8951 68.5456 33.8973 69.1924C34.1026 69.1957 34.3076 69.1981 34.5128 69.2001L34.8591 69.2044C35.5699 69.1779 36.0708 68.8484 36.5698 68.3664C37.1305 67.4848 37.2044 66.5915 37.1042 65.5785C36.93 64.9125 36.5401 64.2789 35.9354 63.9002C35.4615 63.666 34.3384 63.2939 33.8973 63.7199ZM17.5421 63.1004C18.101 63.0901 18.6599 63.0826 19.2188 63.0777C19.4086 63.0756 19.5983 63.0728 19.788 63.0692C22.0713 63.0271 22.0713 63.0271 23.0005 63.7781C23.4342 64.3051 23.3736 64.9348 23.3145 65.5785C23.0398 66.2417 22.4629 66.4456 21.8179 66.7143C22.6414 68.3435 22.6414 68.3435 24.0628 69.3989V69.812C22.5768 69.8897 22.5768 69.8897 22.1036 69.5683C21.3753 68.878 20.8549 68.0205 20.3757 67.1583C20.2301 66.8903 20.2301 66.8903 19.8938 66.8176V69.7087H18.3972L18.3908 69.194C18.3827 68.5643 18.3732 67.9347 18.3633 67.305C18.3592 67.0324 18.3554 66.7599 18.3521 66.4873C18.3473 66.0955 18.3411 65.704 18.3346 65.3122L18.3308 64.9424L18.3244 64.5979L18.3202 64.2949C18.289 64.0179 18.2371 63.8474 18.0765 63.6167C17.8034 63.5328 17.8034 63.5328 17.5421 63.5134V63.1004ZM19.8938 63.7199C19.8845 63.9114 19.8824 64.103 19.8833 64.2946L19.8844 64.6466L19.8872 65.017L19.8886 65.3887C19.8898 65.6929 19.8915 65.9971 19.8938 66.3013C20.0642 66.2885 20.2346 66.2749 20.4049 66.2605L20.6924 66.2377C21.0869 66.1799 21.3133 66.0449 21.6041 65.785C21.8617 65.3092 21.8749 64.8466 21.711 64.3395C21.4897 63.982 21.2744 63.7514 20.8559 63.6167C20.3345 63.552 20.3345 63.552 19.8938 63.7199ZM68.1487 63.2456C69.0021 63.8301 69.4702 64.602 69.7079 65.5785C69.8103 66.6965 69.7734 67.7182 69.064 68.6508C68.5271 69.2587 67.98 69.7649 67.1423 69.9152C65.1697 70.035 65.1697 70.035 64.363 69.5022L64.1383 69.3574C63.3826 68.7983 62.8962 67.9331 62.7596 67.0241C62.6593 65.9447 62.8287 64.7411 63.5576 63.8736C64.8038 62.7066 66.6209 62.3861 68.1487 63.2456ZM64.7906 64.1329C64.1508 65.1514 64.2469 66.6369 64.4122 67.7768C64.586 68.4143 64.9377 68.9658 65.5305 69.3126C65.9806 69.4875 66.4625 69.4711 66.9248 69.3388C67.5023 69.0715 67.7641 68.615 67.9975 68.0566C68.3788 66.9017 68.3394 65.5723 67.8906 64.4427C67.6183 63.9793 67.3481 63.6063 66.8217 63.4102C65.923 63.2579 65.3583 63.4418 64.7906 64.1329ZM29.535 63.2299C30.2477 63.7093 30.8224 64.3631 31.0674 65.178C31.2494 66.2479 31.2778 67.4124 30.6904 68.3664L30.5568 68.5898C30.1042 69.253 29.434 69.6657 28.6594 69.9152C27.4664 70.0086 26.457 70.0086 25.4524 69.2957C24.639 68.6258 24.2923 67.7841 24.183 66.7723C24.1279 65.6383 24.3338 64.6677 25.1254 63.803C26.3298 62.6752 28.0582 62.4137 29.535 63.2299ZM26.4012 63.9522C25.6492 65.0174 25.642 66.3298 25.8224 67.569C26.0001 68.2886 26.3252 68.9422 26.9891 69.3473C27.6342 69.4661 28.1342 69.486 28.7019 69.1291C29.2892 68.638 29.546 67.96 29.6214 67.2306C29.7106 65.881 29.6629 64.7081 28.7061 63.636C28.0042 63.0759 26.9538 63.3871 26.4012 63.9522Z" fill="#C9974B"/>
<path d="M11.5558 63.1004C12.0976 63.0901 12.6392 63.0826 13.1811 63.0777C13.3649 63.0756 13.5487 63.0728 13.7325 63.0692C16.0975 63.0241 16.0975 63.0241 16.8714 63.6666C17.3595 64.1987 17.3593 64.7002 17.3508 65.3776C17.3096 65.9343 17.1124 66.2023 16.7069 66.5852C16.0768 67.0149 15.5203 67.0527 14.7761 67.037L13.9076 67.0241V69.7087H12.411L12.4046 69.194C12.3965 68.5643 12.3869 67.9347 12.3771 67.305C12.3729 67.0324 12.3692 66.7598 12.3659 66.4873C12.3611 66.0955 12.3549 65.704 12.3484 65.3122L12.3446 64.9424L12.3382 64.5979L12.3339 64.2949C12.3028 64.0179 12.2509 63.8474 12.0903 63.6167C11.8172 63.5328 11.8172 63.5328 11.5558 63.5134V63.1004ZM13.9076 63.6167V66.5078C14.8487 66.543 14.8487 66.543 15.511 66.0948C15.8654 65.5813 15.87 65.0607 15.7583 64.462C15.6128 64.1208 15.4886 63.9468 15.1903 63.7199C14.7738 63.5677 14.7738 63.5677 13.9076 63.6167Z" fill="#C8974C"/>
<path d="M70.0286 63.1004C70.2824 63.0894 70.5362 63.0808 70.7902 63.0746L71.0057 63.0641C71.5608 63.0536 71.8487 63.1766 72.2734 63.5134C72.4688 63.6992 72.6582 63.8907 72.8413 64.0878L72.9945 64.2519C73.4035 64.6936 73.7916 65.1507 74.1763 65.6124C74.4902 65.9808 74.821 66.333 75.155 66.6845C75.3797 66.9276 75.5902 67.1827 75.801 67.4371L75.9079 63.1004H76.4424V69.7087C75.801 69.7087 75.801 69.7087 75.5618 69.5229L75.3401 69.2634L75.0904 68.977L74.8389 68.6762L74.6009 68.3946C74.4417 68.206 74.2828 68.0171 74.1244 67.8279C73.7881 67.4373 73.4317 67.0662 73.0756 66.6925C72.7122 66.3016 72.3705 65.8964 72.029 65.4873C71.8643 65.2829 71.8643 65.2829 71.7389 65.1655L71.632 69.7087H70.9906L70.9873 69.4959C70.9758 68.7656 70.9635 68.0354 70.9509 67.305C70.9462 67.0325 70.9418 66.7599 70.9375 66.4873C70.9313 66.0955 70.9245 65.704 70.9175 65.3122L70.9122 64.9424L70.9058 64.5979L70.9006 64.295C70.887 64.065 70.8454 63.8373 70.7768 63.6167L70.0286 63.4102V63.1004ZM80.0502 62.7519L80.3102 62.7524C81.0847 62.7679 81.614 62.9289 82.2374 63.3715C82.5105 63.7217 82.4754 64.0493 82.4554 64.4685L82.4495 64.7017C82.4441 64.8908 82.4372 65.0798 82.4286 65.2688H82.001L81.9423 65.061C81.7039 64.179 81.7039 64.179 81.0791 63.5328C80.505 63.3377 79.9947 63.3046 79.4355 63.5521C79.1568 63.7708 79.1223 63.8725 79.0747 64.2169C79.1293 64.6645 79.3014 64.7664 79.6493 65.0622C79.9182 65.2423 80.1966 65.4041 80.4778 65.5656C82.5152 66.7666 82.5152 66.7666 82.7084 67.4714C82.7721 68.0631 82.7511 68.4564 82.4286 68.9859C82.0219 69.4661 81.5503 69.7578 80.9121 69.8433C80.6572 69.8572 80.4056 69.8602 80.1504 69.8572L79.8791 69.8554C79.1319 69.8377 78.4492 69.7336 77.8655 69.2493C77.5491 68.8883 77.6074 68.4862 77.6116 68.0372L77.6145 67.6392L77.6183 67.3339H78.0459L78.1243 67.5641C78.4321 68.474 78.4321 68.474 79.1282 69.1214C79.7115 69.2561 80.2827 69.293 80.8319 69.044C81.0272 68.8976 81.0272 68.8976 81.1459 68.7794C81.2269 68.1978 81.2269 68.1978 80.9426 67.709C80.446 67.2661 79.8375 66.9492 79.2637 66.6103C78.6072 66.2113 78.0215 65.8111 77.7151 65.101C77.6178 64.5517 77.5738 64.1355 77.8321 63.6167C78.4752 62.927 79.1151 62.7501 80.0502 62.7519Z" fill="#C9974B"/>
<path d="M52.1033 63.1843C52.5155 63.5085 52.7853 63.7533 52.8832 64.2705L52.8983 64.6298L52.9167 64.9933L52.925 65.2688C52.6707 65.2478 52.6707 65.2478 52.3905 65.1655C52.2674 64.9476 52.2674 64.9476 52.1834 64.675C51.968 64.0814 51.6972 63.7981 51.1078 63.5134C50.2896 63.446 49.6241 63.4154 48.9698 63.9264C48.2508 64.7711 48.1642 65.8849 48.2478 66.9443C48.3649 67.7346 48.5507 68.4398 49.1903 68.9794C49.7893 69.3857 50.4152 69.3656 51.1203 69.2626C51.8402 69.0644 52.2558 68.4961 52.7112 67.9534L53.1388 68.2631C52.9624 68.888 52.5056 69.2917 51.9612 69.6401C51.0272 70.085 49.7643 70.0641 48.7618 69.8471C48.5199 69.753 48.3268 69.6482 48.1146 69.5022L47.8871 69.3501C47.1762 68.8152 46.7501 68.0925 46.6181 67.2306C46.5269 65.9797 46.6602 64.9034 47.5063 63.9038C48.6958 62.6937 50.5616 62.3695 52.1033 63.1843ZM49.7516 55.5435C50.1638 55.8676 50.4336 56.1124 50.5315 56.6296L50.5466 56.989L50.5649 57.3524L50.5733 57.6279C50.319 57.6069 50.319 57.6069 50.0388 57.5246C49.9156 57.3068 49.9156 57.3068 49.8316 57.0342C49.6162 56.4406 49.3455 56.1572 48.756 55.8726C47.9378 55.8051 47.2724 55.7746 46.6181 56.2856C45.8991 57.1302 45.8125 58.244 45.8961 59.3034C46.0131 60.0937 46.1989 60.799 46.8386 61.3386C47.4376 61.7449 48.0634 61.7247 48.7685 61.6218C49.4885 61.4235 49.9041 60.8552 50.3595 60.3125L50.7871 60.6223C50.6107 61.2472 50.1538 61.6508 49.6095 61.9993C48.6754 62.4441 47.4125 62.4233 46.4101 62.2062C46.1682 62.1122 45.9751 62.0073 45.7629 61.8613L45.5353 61.7092C44.8244 61.1744 44.3984 60.4516 44.2663 59.5897C44.1752 58.3388 44.3085 57.2626 45.1546 56.263C46.3441 55.0528 48.2099 54.7286 49.7516 55.5435Z" fill="#C8974B"/>
<path d="M53.994 55.4595H54.6354C55.1891 56.4751 55.6424 57.5217 56.0919 58.583C56.1973 58.8314 56.3029 59.0798 56.4088 59.328C56.4741 59.4809 56.5392 59.634 56.6038 59.7873C57.0748 60.9702 57.0748 60.9701 58.0561 61.7581V62.0678C56.6079 62.1639 56.6079 62.1639 55.9804 61.7121C55.5293 61.2839 55.3692 60.7869 55.1699 60.2093H52.4974L52.2837 60.8288C52.1761 61.05 52.0647 61.2694 51.9496 61.487L51.775 61.8185L51.6423 62.0678H51.0009C51.3408 61.1835 51.7198 60.3137 52.1367 59.4607C52.777 58.1359 53.3899 56.8002 53.994 55.4595ZM53.7802 57.4214C53.6193 57.761 53.459 58.1009 53.2992 58.441C53.2532 58.5378 53.2074 58.6345 53.1602 58.7343L53.0286 59.0146L52.9064 59.2735C52.8049 59.4802 52.8049 59.4802 52.8181 59.693H54.8492C54.745 59.1894 54.5873 58.7895 54.3748 58.3249L54.2735 58.0957C54.1141 57.6866 54.1141 57.6866 53.7802 57.4214Z" fill="#C9974C"/>
<path d="M39.2422 63.1004C39.5183 63.0894 39.7944 63.0808 40.0706 63.0746L40.3069 63.064C40.6586 63.0579 40.8955 63.0622 41.1888 63.2586C41.4496 63.6058 41.4407 63.9137 41.4379 64.327C41.4389 64.4062 41.4403 64.4854 41.4416 64.567C41.4453 64.8203 41.4463 65.0735 41.4469 65.3269C41.3582 67.2748 41.3582 67.2748 42.1284 68.9859C42.6044 69.2709 43.0818 69.2456 43.625 69.1924C44.1295 69.021 44.4114 68.805 44.6939 68.3664C44.8948 67.7328 44.9432 67.1485 44.952 66.4884L44.9583 66.1934C44.9647 65.8852 44.9696 65.577 44.9745 65.2687L44.9871 64.6384C44.9973 64.1257 45.0063 63.6131 45.0146 63.1004H45.656C45.6614 63.6844 45.6652 64.2684 45.6678 64.8524C45.6688 65.0507 45.6702 65.2489 45.6721 65.4472C45.6747 65.7338 45.676 66.0203 45.6769 66.307L45.6803 66.5713C45.6804 67.5289 45.5825 68.5211 44.8631 69.2409C44.2244 69.7863 43.6606 69.8494 42.8433 69.8507L42.5788 69.8583C41.8465 69.8617 41.3107 69.6782 40.74 69.2332C39.8855 68.2471 39.9402 67.1316 39.9304 65.9141C39.9278 65.6678 39.9247 65.4216 39.9206 65.1754C39.9179 65.0231 39.9164 64.8709 39.9159 64.7186C39.9094 64.3083 39.8707 63.9814 39.6698 63.6167C39.4542 63.4779 39.4542 63.4779 39.2422 63.4102V63.1004Z" fill="#C8974B"/>
<path d="M27.3766 55.3563C28.1775 55.3098 28.8595 55.2783 29.5145 55.7693C30.0509 56.4876 30.3699 57.2956 30.7105 58.112C30.768 58.2481 30.8255 58.3842 30.8831 58.5203C31.1062 59.048 31.3268 59.5766 31.5456 60.106C32.2314 58.7345 32.8427 57.332 33.4586 55.9304C33.529 55.7714 33.604 55.6144 33.6835 55.4595H34.3249C34.0756 56.2228 33.7683 56.9528 33.4426 57.6884L33.2801 58.0572C33.1674 58.313 33.0545 58.5685 32.9412 58.8241C32.7965 59.1514 32.6523 59.4787 32.5083 59.8064C32.3702 60.1202 32.2315 60.4337 32.093 60.7473L31.9364 61.1032L31.7905 61.4323L31.6624 61.7219C31.5456 61.9646 31.5456 61.9646 31.3318 62.2744C31.0512 62.2938 31.0512 62.2938 30.7973 62.2744L30.7116 62.0814C30.4155 61.4145 30.1188 60.7478 29.8219 60.0812C29.7114 59.8329 29.601 59.5846 29.4907 59.3361C29.3314 58.9776 29.1718 58.6193 29.0122 58.2612L28.8647 57.9283C28.7271 57.6207 28.5874 57.3141 28.4456 57.0084L28.3102 56.7082L28.1763 56.4267L28.0603 56.1779C27.869 55.9187 27.6862 55.8619 27.3766 55.7693V55.3563Z" fill="#C9974B"/>
<path d="M54.4361 63.0535H54.7668L55.1214 63.06L55.4863 63.0619C55.8708 63.0642 56.2552 63.0693 56.6397 63.0746C56.9004 63.0766 57.1611 63.0785 57.4218 63.0803C58.0609 63.0848 58.6998 63.0916 59.3389 63.1004V63.6167H57.2009V69.7087H55.7043V63.6167C54.5972 63.6136 54.5972 63.6136 54.1009 64.0297C54.0053 64.2383 54.0053 64.2383 53.9673 64.462L53.8871 64.8557H53.4595C53.4482 64.6407 53.4393 64.4256 53.4328 64.2104L53.4178 63.8473C53.4924 63.2498 53.839 63.0478 54.4361 63.0535Z" fill="#C8964C"/>
<path d="M60.0871 63.1004H61.5837L61.5918 63.6373C61.6008 64.2223 61.6102 64.807 61.6199 65.3918C61.6259 65.7465 61.6316 66.1012 61.6368 66.4558C61.6429 66.8633 61.6499 67.2708 61.6568 67.6783L61.6622 68.0652L61.6686 68.4223L61.6737 68.7377C61.674 68.9873 61.674 68.9873 61.7975 69.1924C62.009 69.2675 62.2229 69.3368 62.4389 69.3989V69.7087C62.1248 69.717 61.811 69.7232 61.4968 69.7281L61.2269 69.736L60.9669 69.739L60.7278 69.7439C60.4496 69.698 60.362 69.6154 60.194 69.3989C60.0801 69.0628 60.0742 68.7508 60.0749 68.3987V68.0418L60.0767 67.6582L60.0772 67.264C60.0776 66.9192 60.0786 66.5742 60.0798 66.2292C60.0808 65.8769 60.0814 65.5246 60.0819 65.1723C60.0831 64.4817 60.0849 63.7911 60.0871 63.1004Z" fill="#C8974B"/>
<path d="M45.9767 76.0072H46.8319L47.0457 77.4528L47.1994 76.7881C47.353 76.1234 47.353 76.1234 47.4733 76.0072C47.6871 76.0031 47.9009 76.0028 48.1147 76.0072C48.2875 76.4844 48.4195 76.9619 48.5422 77.4528L48.756 76.0072H49.6112C49.5426 76.4139 49.4733 76.8204 49.4041 77.227L49.345 77.5772L49.2876 77.913L49.2351 78.2228C49.1836 78.4854 49.1836 78.4854 49.0767 78.7951H48.1147C47.9799 78.4244 47.8727 78.0448 47.794 77.6593L47.4733 78.7951H46.5112C46.2724 77.8691 46.1016 76.9534 45.9767 76.0072ZM62.332 76.0072H63.1872L63.8285 77.143L63.9354 76.0072H64.6837V78.7951H63.8285L63.1872 77.5561L63.0803 78.7951H62.332V76.0072ZM80.2907 76.0072H81.039C81.2485 76.2258 81.2485 76.2258 81.3998 76.5106L81.5558 76.7937L81.6804 77.0398L81.7873 77.2463L81.8942 76.0072H82.6424V78.7951H81.7873C81.54 78.5241 81.54 78.5241 81.3597 78.1756L81.1726 77.8271L81.039 77.5561V78.7951H80.2907V76.0072ZM59.3389 76.0072H60.0871C60.2967 76.2258 60.2967 76.2258 60.4479 76.5106L60.604 76.7937L60.7285 77.0398L60.8354 77.2463L60.9423 76.0072H61.6906V78.7951H60.8354C60.5882 78.5241 60.5882 78.5241 60.4078 78.1756L60.2208 77.8271L60.0871 77.5561V78.7951H59.3389V76.0072Z" fill="#FFE5BC"/>
<path d="M42.3422 76.0072H43.1974L43.8388 77.2463L43.9457 76.0072H44.6939V78.7951H43.8388L43.1974 77.6593L43.0905 78.7951H42.3422V76.0072Z" fill="#FFE5BD"/>
<path d="M24.4904 76.0073H25.2387C25.4482 76.2258 25.4482 76.2258 25.5994 76.5106L25.7555 76.7937L25.88 77.0398L25.9869 77.2463L26.0938 76.0073H26.8421V78.7951H25.9869C25.7397 78.5241 25.7397 78.5241 25.5594 78.1756L25.3723 77.8271L25.2387 77.5561V78.7951H24.4904V76.0073ZM16.1524 76.0073H16.9007C17.1102 76.2258 17.1102 76.2258 17.2615 76.5106L17.4175 76.7937L17.5421 77.0398L17.649 77.2463L17.7559 76.0073H18.5041V78.7951H17.649C17.4017 78.5241 17.4017 78.5241 17.2214 78.1756L17.0343 77.8271L16.9007 77.5561V78.7951H16.1524V76.0073ZM79.1483 76.0589C79.575 76.4424 79.7427 76.818 79.7662 77.3815C79.729 77.9155 79.5886 78.2768 79.2217 78.6919C78.898 78.9376 78.5539 78.9356 78.1485 78.9246C77.7319 78.8725 77.487 78.6797 77.2174 78.3821C76.9211 77.9242 76.9242 77.4595 76.9769 76.9365C77.1281 76.5611 77.2884 76.2595 77.6183 76.0073C78.1779 75.8271 78.6182 75.8271 79.1483 76.0589ZM78.0459 76.6268C77.8234 76.9491 77.8028 77.0329 77.8054 77.4012L77.8036 77.6432C77.8185 77.8963 77.8185 77.8963 78.0459 78.1756C78.3085 78.2359 78.3085 78.2359 78.5804 78.1756C78.8742 77.9309 78.8997 77.7756 78.9411 77.4012C78.8997 77.0268 78.8742 76.8715 78.5804 76.6268C78.3085 76.5665 78.3085 76.5665 78.0459 76.6268ZM67.3896 76.0589C67.8163 76.4424 67.984 76.818 68.0075 77.3815C67.9703 77.9155 67.8299 78.2768 67.4631 78.6919C67.1393 78.9376 66.7952 78.9356 66.3898 78.9246C65.9732 78.8725 65.7283 78.6797 65.4587 78.3821C65.1624 77.9242 65.1655 77.4595 65.2182 76.9365C65.3694 76.5611 65.5297 76.2595 65.8596 76.0073C66.4192 75.8271 66.8595 75.8271 67.3896 76.0589ZM66.2872 76.6268C66.0647 76.9491 66.0441 77.0329 66.0467 77.4012L66.045 77.6432C66.0598 77.8963 66.0598 77.8963 66.2872 78.1756C66.5498 78.2359 66.5498 78.2359 66.8217 78.1756C67.1155 77.9309 67.141 77.7756 67.1824 77.4012C67.141 77.0268 67.1155 76.8715 66.8217 76.6268C66.5498 76.5665 66.5498 76.5665 66.2872 76.6268ZM40.8457 75.904C41.2425 76.0744 41.4713 76.2721 41.7008 76.6268C41.8882 77.1699 41.8822 77.6807 41.6674 78.2143C41.4188 78.5878 41.2851 78.7569 40.8457 78.8984C40.3531 78.9374 40.0883 78.9412 39.6363 78.7435C39.2695 78.4138 39.1176 78.1339 39.0284 77.6593C39.0144 77.1162 39.0904 76.6426 39.456 76.2138C39.8889 75.8673 40.3045 75.8255 40.8457 75.904ZM40.0105 76.7882C39.836 77.1341 39.8414 77.3822 39.8836 77.7626C39.9926 78.0208 39.9926 78.0208 40.2043 78.1756C40.4761 78.2359 40.4761 78.2359 40.7388 78.1756C40.9612 77.8532 40.9818 77.7695 40.9793 77.4012L40.981 77.1592C40.9661 76.9061 40.9661 76.9061 40.7388 76.6268C40.4074 76.5694 40.2684 76.5733 40.0105 76.7882ZM29.5079 76.0396L29.7283 76.2138V76.5235C29.5146 76.6978 29.5146 76.6978 29.3008 76.8333L29.1939 76.73C28.8777 76.7042 28.8777 76.7042 28.5525 76.73C28.2919 76.9818 28.2729 77.1028 28.2318 77.4528C28.2727 77.7854 28.2727 77.7854 28.3387 78.0723L29.087 78.1756V77.7626H28.6594V77.1431H29.8352C29.8497 77.3774 29.86 77.6118 29.8687 77.8465L29.8874 78.2422C29.8352 78.5886 29.8352 78.5886 29.5956 78.7871C29.1606 78.9513 28.7986 78.9688 28.3387 78.8984C27.8702 78.6722 27.569 78.4439 27.3766 77.9691C27.2996 77.3521 27.3251 76.8434 27.6973 76.317C28.2241 75.8559 28.8531 75.757 29.5079 76.0396Z" fill="#FFE5BC"/>
<path d="M53.8871 76.0072H54.7423V77.0398H55.5974V76.0072H56.3457V78.7951H55.5974V77.6593H54.7423V78.7951H53.8871V76.0072Z" fill="#FFE4BD"/>
<path d="M15.2371 76.0589L15.511 76.2138C15.3645 76.5401 15.2983 76.6261 14.9765 76.8333L14.8696 76.73C14.5534 76.6956 14.5534 76.6956 14.2282 76.73C13.9655 77.1107 13.9812 77.3127 14.0144 77.7626C14.1971 78.1049 14.1971 78.1049 14.5623 78.1434L14.8696 78.1756V77.7626H14.3351V77.1431H15.511C15.5254 77.3774 15.5358 77.6118 15.5445 77.8465L15.5632 78.2422C15.511 78.5886 15.511 78.5886 15.268 78.7874C14.7299 78.9922 14.294 78.9614 13.7672 78.7693C13.3648 78.5162 13.2032 78.3029 13.0524 77.8658C12.9957 77.2208 13.0731 76.7429 13.48 76.2138C14.0547 75.8189 14.5949 75.7882 15.2371 76.0589ZM36.9907 76.0396L37.2111 76.2138C37.2111 76.5235 37.2111 76.5235 37.044 76.7107C36.7835 76.8333 36.7835 76.8333 36.3827 76.7494L36.0353 76.6268C36.2352 76.8521 36.3971 76.9565 36.6766 77.0914C37.1737 77.3315 37.1737 77.3315 37.318 77.5561C37.4011 78.2778 37.4011 78.2778 37.1176 78.6338C36.6996 78.9307 36.3295 78.9529 35.8215 78.8984C35.4473 78.7435 35.4473 78.7435 35.1801 78.5886C35.1801 78.2789 35.1801 78.2789 35.3939 77.9691L36.4628 78.0723C36.2147 77.8927 35.9625 77.7176 35.7012 77.5561C35.3939 77.3496 35.3939 77.3496 35.1801 77.0398C35.2149 76.412 35.2149 76.412 35.434 76.1234C35.9129 75.8032 36.4745 75.8168 36.9907 76.0396ZM71.4182 76.0072H72.3803C72.5235 76.4136 72.6658 76.8202 72.8079 77.227L72.9315 77.5772L73.0484 77.913L73.157 78.2228C73.2355 78.4854 73.2355 78.4854 73.2355 78.7951H72.3803L72.2734 78.3821H71.5251L71.4182 78.7951H70.563C70.7886 77.8439 71.0887 76.9283 71.4182 76.0072ZM71.8458 76.73L71.632 77.6593H72.1665L71.9527 76.73H71.8458Z" fill="#FFE5BC"/>
<path d="M30.9042 76.0072H31.7594C31.9834 76.5952 32.1282 77.1381 32.187 77.7626H32.4008L32.4342 77.4076C32.496 76.9165 32.6521 76.4699 32.8284 76.0072H33.5766C33.4674 76.6627 33.2934 77.2911 33.0889 77.924L33.017 78.1476C32.8424 78.6783 32.8424 78.6783 32.7215 78.7951H31.7594L30.9042 76.0072Z" fill="#FFE5BD"/>
<path d="M68.1044 76.0072H68.9596L69.3872 77.6593L69.9217 76.0072H70.67C70.5998 76.6326 70.4284 77.2081 70.2356 77.8078L70.1444 78.0963C70.0707 78.3294 69.9963 78.5623 69.9217 78.7951H68.8527C68.7274 78.3887 68.6027 77.9821 68.4786 77.5754L68.3704 77.2251L68.2681 76.8894L68.1732 76.5796C68.1044 76.317 68.1044 76.317 68.1044 76.0072ZM20.3214 76.0072H22.6731V76.6268H21.8179V78.7951H21.0697V76.6268H20.3214V76.0072Z" fill="#FFE4BD"/>
<path d="M73.0217 76.0072H75.2665V76.6268H74.5183V78.7951H73.77V76.6268H73.0217V76.0072ZM51.2147 76.0072H53.4595V76.6268H52.7112V78.7951H51.963V76.6268H51.2147V76.0072ZM75.6941 76.0072H76.5493V78.7951H75.6941V76.0072ZM49.9319 76.0072H50.7871V78.7951H49.9319V76.0072Z" fill="#FFE5BD"/>
<path d="M11.7696 76.0072H12.6248V78.7951H11.7696V76.0072Z" fill="#FFE3BC"/>
<path d="M57.9492 76.0072H58.6975V78.7951H57.9492V76.0072ZM37.8525 76.0072H38.6008V78.7951H37.8525V76.0072Z" fill="#FFE5BD"/>
<path d="M33.8973 76.0072H34.6456V78.7951H33.8973V76.0072Z" fill="#FFE5BC"/>
<path d="M23.1007 76.0072H23.849V78.7951H23.1007V76.0072Z" fill="#FFE5BD"/>
<path d="M19.1455 76.0072H19.8938V78.7951H19.1455V76.0072Z" fill="#FFE5BC"/>
<defs>
<filter id="filter0_f_31_3" x="0.2" y="0.2" width="92.6" height="88.6" filterUnits="userSpaceOnUse" color-interpolation-filters="sRGB">
<feFlood flood-opacity="0" result="BackgroundImageFix"/>
<feBlend mode="normal" in="SourceGraphic" in2="BackgroundImageFix" result="shape"/>
<feGaussianBlur stdDeviation="0.65" result="effect1_foregroundBlur_31_3"/>
</filter>
</defs>
</svg>
